<?xml version="1.0" encoding="utf-8"?>
<!-- Generator: Adobe Illustrator 27.0.0, SVG Export Plug-In . SVG Version: 6.00 Build 0)  -->
<svg version="1.1" id="Layer_1" xmlns="http://www.w3.org/2000/svg" xmlns:xlink="http://www.w3.org/1999/xlink" x="0px" y="0px"
	 viewBox="0 0 512 512" style="enable-background:new 0 0 512 512;" xml:space="preserve">
<style type="text/css">
	.st0{fill:#EEC18D;}
</style>
<path class="st0" d="M213.3,490.7c-26.2,0-48.9-15.1-59.1-39.3c-10.2-24.3-4.9-51,13.7-69.8l31.6-31.6l-153.2-153
	C13,163.8,13,109.7,46.3,76.4l30.1-30.3c33.3-33.3,87.5-33.3,120.7,0l153,153l31.4-31.4c18.8-18.6,45.2-23.9,69.8-13.7
	c24.3,10,39.5,32.9,39.5,59.1v192c0,46.9-38.4,85.3-85.3,85.3h-192l0,0V490.7z M136.7,64c-10.9,0-22,4.1-30.3,12.4l-30.1,30.3
	c-16.6,16.6-16.6,43.7,0,60.4l168.1,168.1c4.1,4.1,6.2,9.4,6.2,15.1s-2.3,11.1-6.2,15.1L198,411.9c-9.2,9.4-5.8,20.1-4.5,23.3
	c1.3,3,6.4,13,19.6,13h192c23.5,0,42.7-19.2,42.7-42.7V213.3c0-13.2-10-18.6-13-19.6c-3-1.1-13.9-4.7-23.3,4.5L365,244.7
	c-8.3,8.3-21.8,8.3-30.1,0L167,76.4C158.7,68.1,147.8,64,137,64H136.7z"/>
</svg>
